<svg xmlns="http://www.w3.org/2000/svg" viewBox="0 0 45.34 45.34"><defs><style>.cls-1{fill:#fff;}</style></defs><g id="Layer_2" data-name="Layer 2"><g id="Layer_1-2" data-name="Layer 1"><circle cx="22.67" cy="22.67" r="22.67"/><path class="cls-1" d="M30.26,28.92a1.39,1.39,0,1,0-1.39,1.38A1.39,1.39,0,0,0,30.26,28.92Z"/><path class="cls-1" d="M28.48,22.77a5.81,5.81,0,1,0-5.81,5.81A5.81,5.81,0,0,0,28.48,22.77Zm-9.53,0a3.72,3.72,0,1,1,3.72,3.72A3.73,3.73,0,0,1,19,22.77Z"/><path class="cls-1" d="M10.87,27.38V18A7.1,7.1,0,0,1,18,10.87h9.42A7.1,7.1,0,0,1,34.47,18v9.42a7.1,7.1,0,0,1-7.09,7.09H18A7.1,7.1,0,0,1,10.87,27.38ZM32.25,18a4.88,4.88,0,0,0-4.87-4.87H18A4.88,4.88,0,0,0,13.09,18v9.42A4.88,4.88,0,0,0,18,32.25h9.42a4.87,4.87,0,0,0,4.87-4.87Z"/></g></g></svg>