<svg xmlns="http://www.w3.org/2000/svg" viewBox="0 0 908.85 908.85"><defs><style>.cls-1{fill:#f2f2f2;}.cls-2{fill:#ccc;}</style></defs><g id="Layer_2" data-name="Layer 2"><g id="Layer_1-2" data-name="Layer 1"><path class="cls-1" d="M908.85,454.43A454.43,454.43,0,0,1,0,454.43C0,203.45,203.45,0,454.43,0S908.85,203.45,908.85,454.43Z"/><path class="cls-2" d="M613,271.93a158.54,158.54,0,0,0-317.08,0v26.86a43.24,43.24,0,0,0,0,86.48A158.3,158.3,0,0,0,363.34,515l-3,13.54a86.58,86.58,0,0,1-56.93,63.71c-1.59.57-3.17,1-4.77,1.44L213,616.73c-53.19,14.27-90.08,63-90.08,118.47v30.06a454.42,454.42,0,0,0,663,0V735.2c0-55.49-36.89-104.2-90.08-118.47l-85.6-23.06c-1.59-.43-3.18-.87-4.76-1.44a86.54,86.54,0,0,1-56.93-63.71l-3-13.54A158.32,158.32,0,0,0,613,385.27a43.24,43.24,0,0,0,0-86.48Z"/></g></g></svg>