<svg xmlns="http://www.w3.org/2000/svg" viewBox="0 0 908.85 908.85"><defs><style>.cls-1{fill:#f2f2f2;}.cls-2{fill:#ccc;}</style></defs><g id="Layer_2" data-name="Layer 2"><g id="Layer_1-2" data-name="Layer 1"><path class="cls-1" d="M908.85,454.42a452.3,452.3,0,0,1-94.13,276.94q-13.56,17.65-28.81,33.9a454.42,454.42,0,0,1-663,0Q107.72,749,94.12,731.37A452.39,452.39,0,0,1,0,454.42C0,203.45,203.45,0,454.42,0S908.85,203.45,908.85,454.42Z"/><path class="cls-2" d="M814.72,731.36q-13.56,17.65-28.81,33.9a454.42,454.42,0,0,1-663,0Q107.72,749,94.12,731.37c4.91-18.69,10.75-37.6,23.46-52,16.31-18.47,41.11-26.47,64.68-33.7L352.8,593.37c5.32-14,10.62-35.75,12.32-68.2-12.62-14.32-23.19-30-28.65-43.7a156.41,156.41,0,0,1-10.78-56.19c-2.23,4.08-7.54,6.21-12.21,5.33-5.23-1-9.48-5-12-9.7s-3.53-10-4.37-15.25a305.68,305.68,0,0,1-3.86-55.3c.16-7.89,1.88-17.53,9.34-20.07,3.49-1.18,7.37-.33,10.59,1.52a885,885,0,0,1,.24-96.36c.94-19,2.53-38.63,11.86-55.17,8.62-15.29,23.1-26.83,39.17-33.89a198.56,198.56,0,0,1,26.65-9.32,235.32,235.32,0,0,1,131.62,1.37,197.77,197.77,0,0,1,21.64,7.95c16.07,7.06,30.55,18.6,39.16,33.89,9.33,16.54,10.93,36.2,11.87,55.17a885,885,0,0,1,.24,96.36c3.22-1.85,7.1-2.7,10.58-1.52,7.47,2.54,9.19,12.18,9.35,20.07a305.68,305.68,0,0,1-3.86,55.3c-.84,5.24-1.86,10.57-4.37,15.25s-6.76,8.71-12,9.7c-4.67.88-10-1.25-12.22-5.33a156.36,156.36,0,0,1-10.77,56.19c-5.46,13.67-16,29.38-28.66,43.7,1.71,32.45,7,54.15,12.32,68.2l170.55,52.29c23.56,7.23,48.37,15.23,64.68,33.7C804,693.77,809.83,712.67,814.72,731.36Z"/></g></g></svg>