<svg xmlns="http://www.w3.org/2000/svg" viewBox="0 0 46.15 46.15"><defs><style>.cls-1{fill:none;stroke:#000;stroke-miterlimit:10;stroke-width:2px;}</style></defs><g id="Layer_2" data-name="Layer 2"><g id="Layer_1-2" data-name="Layer 1"><circle class="cls-1" cx="23.08" cy="23.08" r="22.08"/><path class="cls-1" d="M23.09,10h0a7.83,7.83,0,0,0-7.72,6.56l-1.28,7.84a4.73,4.73,0,0,1-.87,2l-1.3,1.72a2.06,2.06,0,0,0,1.64,3.29h19a2.06,2.06,0,0,0,1.63-3.3L33,26.57a4.62,4.62,0,0,1-.89-2.07l-1.29-7.9A7.83,7.83,0,0,0,23.09,10Z"/><path class="cls-1" d="M18.28,31.5a4.8,4.8,0,0,0,9.6,0"/></g></g></svg>