<svg xmlns="http://www.w3.org/2000/svg" viewBox="0 0 45.34 45.34"><defs><style>.cls-1{fill:#fff;}</style></defs><g id="Layer_2" data-name="Layer 2"><g id="Layer_1-2" data-name="Layer 1"><circle cx="22.67" cy="22.67" r="22.67"/><path class="cls-1" d="M9.67,22.14S21,17.48,25,15.84c1.51-.65,6.62-2.75,6.62-2.75s2.36-.92,2.16,1.31c-.06.92-.59,4.13-1.11,7.6C31.83,26.92,31,32.3,31,32.3s-.13,1.5-1.24,1.77-2.95-.92-3.28-1.18-4.92-3.15-6.62-4.59a1.24,1.24,0,0,1,.06-2.1c2.36-2.16,5.18-4.85,6.89-6.56.78-.78,1.57-2.62-1.71-.39-4.65,3.21-9.24,6.23-9.24,6.23a3.88,3.88,0,0,1-3,.06c-2-.59-4.26-1.37-4.26-1.37s-1.57-1,1.11-2Z"/></g></g></svg>