<svg xmlns="http://www.w3.org/2000/svg" viewBox="0 0 45.34 45.34"><defs><style>.cls-1,.cls-2{fill:#fff;}.cls-2{fill-rule:evenodd;}</style></defs><g id="Layer_2" data-name="Layer 2"><g id="Layer_1-2" data-name="Layer 1"><circle cx="22.67" cy="22.67" r="22.67"/><path class="cls-1" d="M11,34.37l1.68-6.26a11.56,11.56,0,1,1,4.61,4.58Zm6.6-4,.4.24a9.37,9.37,0,1,0-4.59-8,9.3,9.3,0,0,0,1.37,4.86l.24.4-.93,3.49Z"/><path class="cls-2" d="M27.08,24.14a1.91,1.91,0,0,0-1.65-.38c-.43.18-.7.85-1,1.2a.43.43,0,0,1-.54.11,7.51,7.51,0,0,1-3.74-3.2.47.47,0,0,1,.06-.63,2.54,2.54,0,0,0,.68-1.1,2.5,2.5,0,0,0-.3-1.31c-.23-.49-.48-1.18-1-1.45a1.29,1.29,0,0,0-1.43.21,2.91,2.91,0,0,0-1,2.31,3,3,0,0,0,.09.73,6.11,6.11,0,0,0,.7,1.62,11.8,11.8,0,0,0,.73,1.11,11.35,11.35,0,0,0,3.18,3,9.79,9.79,0,0,0,2,.94,4.38,4.38,0,0,0,2.31.37,2.79,2.79,0,0,0,2.09-1.56,1.37,1.37,0,0,0,.1-.8C28.27,24.73,27.53,24.4,27.08,24.14Z"/></g></g></svg>