<svg xmlns="http://www.w3.org/2000/svg" viewBox="0 0 908.85 908.85"><defs><style>.cls-1{fill:#f2f2f2;}.cls-2{fill:#ccc;}</style></defs><g id="Layer_2" data-name="Layer 2"><g id="Layer_1-2" data-name="Layer 1"><path class="cls-1" d="M908.85,454.43A454.43,454.43,0,0,1,0,454.43C0,203.45,203.45,0,454.43,0S908.85,203.45,908.85,454.43Z"/><path class="cls-2" d="M718.91,707.29V824a454.64,454.64,0,0,1-529,0V707.29a79.22,79.22,0,0,1,61.49-77.22l47.48-11c-107.37.66-95.73-80.66-95.73-80.66,52.89,0,66.11-52.89,66.11-158.68V313.63A185.14,185.14,0,0,1,454.43,128.49c102.22,0,185.13,82.92,185.13,185.14v66.12c0,105.79,13.22,158.68,66.11,158.68,0,0,11.64,81.32-95.73,80.66l47.48,11A79.22,79.22,0,0,1,718.91,707.29Z"/></g></g></svg>