<svg xmlns="http://www.w3.org/2000/svg" viewBox="0 0 908.85 908.85"><defs><style>.cls-1{fill:#f2f2f2;}.cls-2{fill:#ccc;}</style></defs><g id="Layer_2" data-name="Layer 2"><g id="Layer_1-2" data-name="Layer 1"><path class="cls-1" d="M908.85,454.42A452.82,452.82,0,0,1,785.91,765.26c-.54.58-1.09,1.15-1.64,1.73a454.18,454.18,0,0,1-659.68,0c-.56-.58-1.1-1.16-1.65-1.74A452.82,452.82,0,0,1,0,454.42C0,203.45,203.45,0,454.42,0S908.85,203.45,908.85,454.42Z"/><path class="cls-2" d="M784.27,767a454.18,454.18,0,0,1-659.68,0c11.49-28,31.38-43.82,66.12-56.94,41.11-15.53,71.35-23.51,113.08-37.26,25.77-8.36,53.43-34.53,64.78-59.12,11.17-24.24,12-51.42,10.42-78.38a90.23,90.23,0,0,1-14.27-15.15c-12-17-27.23-45.59-34.56-78.6a13,13,0,0,1-12.55-1.69c-5.07-3.92-7.3-10.42-9.09-16.57a331.81,331.81,0,0,1-10.25-48.91c-.55-4.12-1-8.34-.12-12.4s3.34-8,7.16-9.59a6.61,6.61,0,0,1,.85-.3A480.42,480.42,0,0,1,312.69,260c3.67-21.8,9-43.75,20.65-62.93,12.43-20.44,32-37,54.88-46.65,2.34-1,4.88-1.9,7.64-2.75,0-.12,0-.23,0-.35a58.58,58.58,0,0,1,117.16,0c0,.12,0,.23,0,.35,2.76.85,5.3,1.77,7.64,2.75C543.56,160,563.08,176.6,575.51,197c11.66,19.18,17,41.13,20.66,62.93a482,482,0,0,1,6.53,92.12,6,6,0,0,1,.84.3c3.83,1.6,6.29,5.54,7.17,9.59s.42,8.28-.13,12.4a330.52,330.52,0,0,1-10.25,48.91c-1.79,6.15-4,12.65-9.09,16.57a13,13,0,0,1-12.55,1.68c-7.32,33-22.52,61.65-34.56,78.61a89.82,89.82,0,0,1-14.27,15.15c-1.55,27-.75,54.14,10.43,78.38,11.35,24.59,39,50.76,64.77,59.12,41.74,13.75,72,21.73,113.09,37.26C752.88,723.18,772.77,739,784.27,767Z"/></g></g></svg>